<svg width="188" height="69" viewBox="0 0 188 69" fill="none" xmlns="http://www.w3.org/2000/svg">
<path d="M150.726 61.0579L155.426 52.8106L160.079 61.0347C158.759 60.4425 157.116 60.1461 155.333 60.1461C153.666 60.1461 152.069 60.4425 150.726 61.0572M126.626 61.0579L131.326 52.8106L135.979 61.0347C134.659 60.4425 133.016 60.1461 131.233 60.1461C129.566 60.1461 127.969 60.4425 126.626 61.0572M81.7597 61.0579L86.4592 52.6284L91.1586 61.0354C89.839 60.4432 88.1719 60.1468 86.3894 60.1468C84.7223 60.1468 83.1021 60.4432 81.759 61.0579M187.999 63.1085C187.999 66.5712 184.78 68.6218 179.016 68.6218C174.896 68.6218 171.4 67.8699 167.811 65.637L168.992 63.564C172.349 65.6602 175.22 66.389 178.994 66.389C183.184 66.389 185.383 65.1815 185.383 63.0629C185.383 61.3543 183.786 60.6479 180.637 60.329L175.081 59.7824C171.03 59.3948 168.46 57.8684 168.46 55.0665C168.46 51.7404 172.095 49.6218 177.859 49.6218C181.448 49.6218 184.295 50.3051 187.143 52.0593L185.985 54.2234C183.716 52.7426 181.054 51.9451 177.559 51.9451C173.484 51.9451 171.077 53.2206 171.077 54.9754C171.077 56.6385 172.813 57.2762 175.337 57.5271L181.009 58.0738C185.569 58.5069 188 60.1244 188 63.1085M166.955 68.2118L156.606 50.0542H154.268L143.943 68.2118H146.721L147.856 66.1388C149.175 63.7238 151.467 62.4483 155.333 62.4483C159.199 62.4483 161.63 63.7013 162.973 66.1619L164.084 68.2125H166.955V68.2118ZM142.855 68.2118L132.507 50.0542H130.169L119.843 68.2118H122.621L123.756 66.1388C125.075 63.7238 127.367 62.4483 131.233 62.4483C135.1 62.4483 137.53 63.7013 138.873 66.1619L139.984 68.2125H142.855V68.2118ZM119.056 63.1085C119.056 66.5712 115.837 68.6218 110.073 68.6218C105.953 68.6218 102.457 67.8699 98.8683 65.637L100.049 63.564C103.406 65.6602 106.277 66.389 110.05 66.389C114.241 66.389 116.44 65.1815 116.44 63.0629C116.44 61.3543 114.843 60.6479 111.694 60.329L106.138 59.7824C102.087 59.3948 99.5171 57.8684 99.5171 55.0665C99.5171 51.7404 103.152 49.6218 108.916 49.6218C112.505 49.6218 115.352 50.3051 118.2 52.0593L117.042 54.2234C114.773 52.7426 112.111 51.9451 108.615 51.9451C104.541 51.9451 102.134 53.2206 102.134 54.9754C102.134 56.6385 103.87 57.2762 106.394 57.5271L112.066 58.0738C116.626 58.5069 119.057 60.1244 119.057 63.1085M84.0984 52.1953L75 68.2112H77.7781L78.9125 66.1381C80.2321 63.7462 82.501 62.4476 86.3901 62.4476C90.2791 62.4476 92.7104 63.7462 94.03 66.1612L95.141 68.2118H98.0116L88.335 51.2162C87.8721 50.3962 87.224 50.0542 86.1586 50.0542H78.3571L79.5482 51.2522C80.2736 51.9661 80.8429 52.1953 81.8537 52.1953H84.0984Z" fill="black"/>
<path d="M183.742 36.7734C182.427 36.7734 181.336 36.4798 180.469 35.8924C179.602 35.305 179.071 34.417 178.875 33.2283L180.889 32.7458C181.001 33.3192 181.19 33.7737 181.455 34.1093C181.721 34.445 182.05 34.6827 182.441 34.8226C182.847 34.9624 183.28 35.0323 183.742 35.0323C184.427 35.0323 184.951 34.8995 185.315 34.6338C185.693 34.368 185.881 34.0254 185.881 33.6059C185.881 33.1863 185.707 32.8787 185.357 32.6829C185.007 32.4871 184.49 32.3262 183.805 32.2004L183.091 32.0745C182.392 31.9487 181.756 31.7668 181.183 31.5291C180.609 31.2914 180.155 30.9627 179.819 30.5432C179.483 30.1236 179.316 29.5852 179.316 28.9279C179.316 27.949 179.679 27.1938 180.406 26.6624C181.134 26.1169 182.099 25.8442 183.301 25.8442C184.462 25.8442 185.413 26.11 186.154 26.6414C186.909 27.1588 187.399 27.8651 187.623 28.7601L185.609 29.3265C185.483 28.6972 185.217 28.2566 184.812 28.0049C184.406 27.7392 183.903 27.6063 183.301 27.6063C182.714 27.6063 182.252 27.7182 181.917 27.942C181.581 28.1518 181.413 28.4524 181.413 28.844C181.413 29.2635 181.574 29.5712 181.896 29.767C182.231 29.9628 182.679 30.1096 183.238 30.2075L183.973 30.3334C184.714 30.4593 185.392 30.6341 186.007 30.8578C186.623 31.0816 187.105 31.4032 187.455 31.8228C187.818 32.2423 188 32.8017 188 33.501C188 34.5359 187.616 35.34 186.846 35.9134C186.077 36.4868 185.042 36.7734 183.742 36.7734Z" fill="black"/>
<path d="M171.444 36.7734C170.41 36.7734 169.487 36.5637 168.675 36.1441C167.878 35.7106 167.249 35.0953 166.787 34.2981C166.326 33.501 166.095 32.557 166.095 31.4662V31.1515C166.095 30.0607 166.326 29.1237 166.787 28.3405C167.249 27.5434 167.878 26.9281 168.675 26.4945C169.487 26.061 170.41 25.8442 171.444 25.8442C172.479 25.8442 173.402 26.061 174.213 26.4945C175.025 26.9281 175.661 27.5434 176.122 28.3405C176.584 29.1237 176.815 30.0607 176.815 31.1515V31.4662C176.815 32.557 176.584 33.501 176.122 34.2981C175.661 35.0953 175.025 35.7106 174.213 36.1441C173.402 36.5637 172.479 36.7734 171.444 36.7734ZM171.444 34.8435C172.395 34.8435 173.165 34.5429 173.752 33.9415C174.353 33.3262 174.654 32.4801 174.654 31.4032V31.2144C174.654 30.1376 174.36 29.2985 173.773 28.6972C173.186 28.0818 172.409 27.7742 171.444 27.7742C170.507 27.7742 169.738 28.0818 169.137 28.6972C168.55 29.2985 168.256 30.1376 168.256 31.2144V31.4032C168.256 32.4801 168.55 33.3262 169.137 33.9415C169.738 34.5429 170.507 34.8435 171.444 34.8435Z" fill="black"/>
<path d="M158.855 36.4797V26.1379H160.974V27.3546H161.309C161.477 26.9211 161.743 26.6064 162.106 26.4106C162.484 26.2008 162.946 26.0959 163.491 26.0959H164.729V28.0468H163.407C162.708 28.0468 162.134 28.2426 161.687 28.6342C161.239 29.0118 161.016 29.5992 161.016 30.3963V36.4797H158.855Z" fill="black"/>
<path d="M153.487 36.4798V26.138H155.648V36.4798H153.487ZM154.578 24.7325C154.159 24.7325 153.802 24.5996 153.508 24.3339C153.229 24.0542 153.089 23.6976 153.089 23.2641C153.089 22.8305 153.229 22.4809 153.508 22.2152C153.802 21.9355 154.159 21.7957 154.578 21.7957C155.012 21.7957 155.368 21.9355 155.648 22.2152C155.928 22.4809 156.068 22.8305 156.068 23.2641C156.068 23.6976 155.928 24.0542 155.648 24.3339C155.368 24.5996 155.012 24.7325 154.578 24.7325Z" fill="black"/>
<path d="M145.978 36.7734C144.929 36.7734 144.013 36.5567 143.23 36.1231C142.447 35.6756 141.832 35.0533 141.384 34.2562C140.951 33.445 140.734 32.5081 140.734 31.4452V31.1935C140.734 30.1166 140.951 29.1796 141.384 28.3825C141.818 27.5714 142.419 26.949 143.188 26.5155C143.971 26.068 144.873 25.8442 145.894 25.8442C146.887 25.8442 147.754 26.068 148.496 26.5155C149.251 26.949 149.838 27.5574 150.258 28.3405C150.677 29.1237 150.887 30.0397 150.887 31.0886V31.9067H142.937C142.964 32.8157 143.265 33.5429 143.839 34.0883C144.426 34.6198 145.153 34.8855 146.02 34.8855C146.831 34.8855 147.44 34.7037 147.845 34.3401C148.265 33.9765 148.586 33.5569 148.81 33.0814L150.593 34.0044C150.397 34.396 150.111 34.8086 149.733 35.2421C149.37 35.6756 148.887 36.0392 148.286 36.3329C147.684 36.6266 146.915 36.7734 145.978 36.7734ZM142.957 30.2495H148.684C148.628 29.4663 148.349 28.858 147.845 28.4245C147.342 27.9769 146.684 27.7532 145.873 27.7532C145.062 27.7532 144.398 27.9769 143.88 28.4245C143.377 28.858 143.069 29.4663 142.957 30.2495Z" fill="black"/>
<path d="M133.627 36.7734C132.634 36.7734 131.732 36.5637 130.921 36.1441C130.123 35.7246 129.487 35.1162 129.012 34.3191C128.55 33.522 128.319 32.564 128.319 31.4452V31.1725C128.319 30.0537 128.55 29.1027 129.012 28.3196C129.487 27.5224 130.123 26.9141 130.921 26.4945C131.732 26.061 132.634 25.8442 133.627 25.8442C134.62 25.8442 135.466 26.026 136.165 26.3897C136.864 26.7533 137.424 27.2357 137.843 27.8371C138.277 28.4384 138.556 29.1027 138.682 29.8299L136.584 30.2705C136.514 29.809 136.368 29.3894 136.144 29.0118C135.92 28.6342 135.605 28.3336 135.2 28.1098C134.794 27.886 134.284 27.7742 133.669 27.7742C133.067 27.7742 132.522 27.914 132.032 28.1937C131.557 28.4594 131.179 28.851 130.9 29.3684C130.62 29.8719 130.48 30.4872 130.48 31.2144V31.4032C130.48 32.1305 130.62 32.7528 130.9 33.2702C131.179 33.7877 131.557 34.1792 132.032 34.445C132.522 34.7107 133.067 34.8435 133.669 34.8435C134.578 34.8435 135.27 34.6128 135.745 34.1513C136.221 33.6758 136.521 33.0744 136.647 32.3472L138.745 32.8297C138.577 33.5429 138.277 34.2002 137.843 34.8016C137.424 35.4029 136.864 35.8854 136.165 36.249C135.466 36.5986 134.62 36.7734 133.627 36.7734Z" fill="black"/>
<path d="M115.917 36.4799V26.138H118.035V27.6904H118.371C118.567 27.2708 118.916 26.8792 119.42 26.5156C119.923 26.152 120.671 25.9702 121.664 25.9702C122.447 25.9702 123.14 26.145 123.741 26.4946C124.356 26.8443 124.839 27.3407 125.189 27.984C125.538 28.6134 125.713 29.3755 125.713 30.2706V36.4799H123.552V30.4384C123.552 29.5434 123.329 28.8861 122.881 28.4665C122.433 28.033 121.818 27.8162 121.035 27.8162C120.14 27.8162 119.42 28.1099 118.874 28.6973C118.343 29.2846 118.077 30.1377 118.077 31.2565V36.4799H115.917Z" fill="black"/>
<path d="M107.019 36.7734C106.278 36.7734 105.614 36.6476 105.026 36.3959C104.453 36.1441 103.991 35.7735 103.642 35.2841C103.306 34.7946 103.138 34.2002 103.138 33.501C103.138 32.7877 103.306 32.2004 103.642 31.7389C103.991 31.2634 104.46 30.9068 105.047 30.669C105.648 30.4313 106.327 30.3124 107.082 30.3124H110.229V29.6411C110.229 29.0398 110.047 28.5573 109.683 28.1937C109.32 27.8301 108.76 27.6483 108.005 27.6483C107.264 27.6483 106.697 27.8231 106.306 28.1727C105.914 28.5224 105.655 28.9769 105.53 29.5363L103.516 28.886C103.684 28.3266 103.949 27.8231 104.313 27.3756C104.691 26.9141 105.187 26.5435 105.802 26.2638C106.418 25.9841 107.159 25.8442 108.026 25.8442C109.368 25.8442 110.424 26.1869 111.193 26.8721C111.963 27.5574 112.347 28.5293 112.347 29.788V34.0464C112.347 34.4659 112.543 34.6757 112.935 34.6757H113.816V36.4798H112.2C111.711 36.4798 111.312 36.3539 111.005 36.1022C110.697 35.8504 110.543 35.5078 110.543 35.0743V35.0113H110.229C110.117 35.2211 109.949 35.4659 109.725 35.7456C109.501 36.0253 109.173 36.27 108.739 36.4798C108.306 36.6756 107.732 36.7734 107.019 36.7734ZM107.334 34.9904C108.201 34.9904 108.9 34.7456 109.431 34.2562C109.963 33.7527 110.229 33.0674 110.229 32.2004V31.9906H107.208C106.634 31.9906 106.173 32.1165 105.823 32.3682C105.474 32.6059 105.299 32.9626 105.299 33.438C105.299 33.9135 105.481 34.2911 105.844 34.5708C106.208 34.8505 106.704 34.9904 107.334 34.9904Z" fill="black"/>
<path d="M90.9043 36.4799V26.138H93.023V27.6904H93.3586C93.5544 27.2708 93.9041 26.8792 94.4075 26.5156C94.911 26.152 95.6592 25.9702 96.6521 25.9702C97.4353 25.9702 98.1275 26.145 98.7289 26.4946C99.3442 26.8443 99.8267 27.3407 100.176 27.984C100.526 28.6134 100.701 29.3755 100.701 30.2706V36.4799H98.5401V30.4384C98.5401 29.5434 98.3163 28.8861 97.8688 28.4665C97.4213 28.033 96.8059 27.8162 96.0228 27.8162C95.1277 27.8162 94.4075 28.1099 93.8621 28.6973C93.3307 29.2846 93.065 30.1377 93.065 31.2565V36.4799H90.9043Z" fill="black"/>
<path d="M78.7586 36.4798V27.963H75.8638V26.138H78.7586V23.8724C78.7586 23.2431 78.9474 22.7396 79.325 22.362C79.7026 21.9844 80.2061 21.7957 80.8354 21.7957H83.3527V23.6207H81.5277C81.1221 23.6207 80.9193 23.8305 80.9193 24.25V26.138H85.5553V27.963H80.9193V36.4798H78.7586ZM85.5553 36.4798V26.138H87.716V36.4798H85.5553ZM86.6461 24.7954C86.2266 24.7954 85.87 24.6626 85.5763 24.3968C85.2966 24.1171 85.1567 23.7605 85.1567 23.327C85.1567 22.8795 85.2966 22.5229 85.5763 22.2572C85.87 21.9914 86.2266 21.8586 86.6461 21.8586C87.0657 21.8586 87.4153 21.9914 87.695 22.2572C87.9887 22.5229 88.1355 22.8795 88.1355 23.327C88.1355 23.7605 87.9887 24.1171 87.695 24.3968C87.4153 24.6626 87.0657 24.7954 86.6461 24.7954Z" fill="black"/>
<path d="M156.373 15.2717C155.058 15.2717 153.967 14.9781 153.1 14.3907C152.233 13.8033 151.702 12.9153 151.506 11.7266L153.52 11.2441C153.632 11.8175 153.82 12.272 154.086 12.6076C154.352 12.9432 154.68 13.181 155.072 13.3208C155.478 13.4607 155.911 13.5306 156.373 13.5306C157.058 13.5306 157.582 13.3978 157.946 13.132C158.324 12.8663 158.512 12.5237 158.512 12.1042C158.512 11.6846 158.337 11.3769 157.988 11.1812C157.638 10.9854 157.121 10.8245 156.436 10.6987L155.722 10.5728C155.023 10.4469 154.387 10.2651 153.813 10.0274C153.24 9.78965 152.785 9.46101 152.45 9.04146C152.114 8.62191 151.946 8.08349 151.946 7.4262C151.946 6.44726 152.31 5.69207 153.037 5.16065C153.764 4.61523 154.729 4.34253 155.932 4.34253C157.093 4.34253 158.044 4.60824 158.785 5.13967C159.54 5.65711 160.03 6.36335 160.253 7.25838L158.24 7.82477C158.114 7.19545 157.848 6.75493 157.442 6.5032C157.037 6.23749 156.533 6.10463 155.932 6.10463C155.345 6.10463 154.883 6.21651 154.548 6.44027C154.212 6.65004 154.044 6.95071 154.044 7.34229C154.044 7.76184 154.205 8.06951 154.527 8.2653C154.862 8.46109 155.31 8.60793 155.869 8.70582L156.603 8.83169C157.345 8.95755 158.023 9.13236 158.638 9.35612C159.254 9.57988 159.736 9.90153 160.086 10.3211C160.449 10.7406 160.631 11.3 160.631 11.9993C160.631 13.0342 160.246 13.8383 159.477 14.4117C158.708 14.985 157.673 15.2717 156.373 15.2717Z" fill="black"/>
<path d="M144.075 15.2717C143.04 15.2717 142.117 15.062 141.306 14.6424C140.509 14.2089 139.88 13.5935 139.418 12.7964C138.957 11.9993 138.726 11.0553 138.726 9.96446V9.6498C138.726 8.55898 138.957 7.62199 139.418 6.83884C139.88 6.0417 140.509 5.42636 141.306 4.99283C142.117 4.5593 143.04 4.34253 144.075 4.34253C145.11 4.34253 146.033 4.5593 146.844 4.99283C147.655 5.42636 148.292 6.0417 148.753 6.83884C149.215 7.62199 149.446 8.55898 149.446 9.6498V9.96446C149.446 11.0553 149.215 11.9993 148.753 12.7964C148.292 13.5935 147.655 14.2089 146.844 14.6424C146.033 15.062 145.11 15.2717 144.075 15.2717ZM144.075 13.3418C145.026 13.3418 145.795 13.0411 146.383 12.4398C146.984 11.8245 147.285 10.9784 147.285 9.90153V9.71273C147.285 8.6359 146.991 7.7968 146.404 7.19545C145.816 6.58012 145.04 6.27245 144.075 6.27245C143.138 6.27245 142.369 6.58012 141.768 7.19545C141.18 7.7968 140.887 8.6359 140.887 9.71273V9.90153C140.887 10.9784 141.18 11.8245 141.768 12.4398C142.369 13.0411 143.138 13.3418 144.075 13.3418Z" fill="black"/>
<path d="M131.619 15.2717C130.626 15.2717 129.724 15.062 128.913 14.6424C128.116 14.2229 127.48 13.6145 127.004 12.8174C126.543 12.0202 126.312 11.0623 126.312 9.94349V9.67078C126.312 8.55199 126.543 7.60101 127.004 6.81786C127.48 6.02072 128.116 5.41237 128.913 4.99283C129.724 4.5593 130.626 4.34253 131.619 4.34253C132.612 4.34253 133.458 4.52433 134.158 4.88794C134.857 5.25155 135.416 5.73403 135.836 6.33538C136.269 6.93673 136.549 7.60101 136.675 8.32823L134.577 8.76875C134.507 8.30725 134.36 7.8877 134.137 7.51011C133.913 7.13252 133.598 6.83184 133.193 6.60808C132.787 6.38433 132.277 6.27245 131.661 6.27245C131.06 6.27245 130.514 6.4123 130.025 6.69199C129.55 6.95771 129.172 7.34929 128.892 7.86673C128.613 8.37018 128.473 8.98552 128.473 9.71274V9.90153C128.473 10.6287 128.613 11.2511 128.892 11.7685C129.172 12.286 129.55 12.6775 130.025 12.9433C130.514 13.209 131.06 13.3418 131.661 13.3418C132.57 13.3418 133.263 13.1111 133.738 12.6496C134.213 12.1741 134.514 11.5727 134.64 10.8455L136.738 11.328C136.57 12.0412 136.269 12.6985 135.836 13.2999C135.416 13.9012 134.857 14.3837 134.158 14.7473C133.458 15.0969 132.612 15.2717 131.619 15.2717ZM131.661 19.3833C131.228 19.3833 130.808 19.3274 130.403 19.2155C129.997 19.1176 129.647 19.0057 129.354 18.8798L129.815 17.5583C130.067 17.6702 130.333 17.768 130.612 17.852C130.906 17.9359 131.228 17.9778 131.577 17.9778C131.871 17.9778 132.109 17.9219 132.291 17.81C132.486 17.7121 132.584 17.5513 132.584 17.3275C132.584 17.1038 132.493 16.9429 132.312 16.845C132.144 16.7471 131.885 16.6982 131.535 16.6982H130.759L130.927 14.5375H132.458L132.353 15.8591C132.885 15.8591 133.325 15.999 133.675 16.2787C134.039 16.5723 134.22 16.9989 134.22 17.5583C134.22 17.9778 134.095 18.3205 133.843 18.5862C133.605 18.8659 133.29 19.0686 132.899 19.1945C132.521 19.3204 132.109 19.3833 131.661 19.3833Z" fill="black"/>
<path d="M121.448 14.9779V4.63602H123.609V14.9779H121.448ZM122.539 3.23053C122.119 3.23053 121.763 3.09768 121.469 2.83196C121.189 2.55226 121.049 2.19565 121.049 1.76212C121.049 1.32858 121.189 0.978963 121.469 0.713249C121.763 0.433551 122.119 0.293701 122.539 0.293701C122.972 0.293701 123.329 0.433551 123.609 0.713249C123.888 0.978963 124.028 1.32858 124.028 1.76212C124.028 2.19565 123.888 2.55226 123.609 2.83196C123.329 3.09768 122.972 3.23053 122.539 3.23053Z" fill="black"/>
<path d="M112.429 14.9778L108.947 4.63599H111.233L113.981 13.3835H114.317L117.065 4.63599H119.352L115.869 14.9778H112.429Z" fill="black"/>
<path d="M101.925 14.9778V4.63595H104.044V5.85264H104.38C104.547 5.4191 104.813 5.10444 105.177 4.90865C105.554 4.69888 106.016 4.59399 106.561 4.59399H107.799V6.54489H106.477C105.778 6.54489 105.205 6.74068 104.757 7.13226C104.31 7.50985 104.086 8.09722 104.086 8.89436V14.9778H101.925Z" fill="black"/>
<path d="M94.4157 15.2717C93.3669 15.2717 92.4508 15.055 91.6677 14.6214C90.8845 14.1739 90.2692 13.5516 89.8217 12.7545C89.3882 11.9433 89.1714 11.0063 89.1714 9.94349V9.69176C89.1714 8.61492 89.3882 7.67793 89.8217 6.88079C90.2552 6.06967 90.8566 5.44734 91.6257 5.0138C92.4089 4.56629 93.3109 4.34253 94.3318 4.34253C95.3247 4.34253 96.1918 4.56629 96.933 5.0138C97.6882 5.44734 98.2756 6.05568 98.6951 6.83884C99.1147 7.62199 99.3244 8.538 99.3244 9.58687V10.405H91.374C91.402 11.314 91.7027 12.0412 92.276 12.5866C92.8634 13.1181 93.5906 13.3838 94.4577 13.3838C95.2688 13.3838 95.8772 13.202 96.2827 12.8384C96.7023 12.4748 97.0239 12.0552 97.2477 11.5797L99.0308 12.5027C98.835 12.8943 98.5483 13.3069 98.1707 13.7404C97.8071 14.1739 97.3246 14.5375 96.7232 14.8312C96.1219 15.1249 95.3527 15.2717 94.4157 15.2717ZM91.395 8.74778H97.1218C97.0659 7.96462 96.7862 7.35628 96.2827 6.92275C95.7793 6.47523 95.122 6.25147 94.3108 6.25147C93.4997 6.25147 92.8354 6.47523 92.318 6.92275C91.8145 7.35628 91.5069 7.96462 91.395 8.74778Z" fill="black"/>
<path d="M81.8211 15.2715C80.7163 15.2715 79.7374 15.0757 78.8843 14.6842C78.0312 14.2926 77.3599 13.7192 76.8705 12.964C76.395 12.1948 76.1572 11.2648 76.1572 10.174V9.64959H78.4018V10.174C78.4018 11.2089 78.7095 11.9851 79.3248 12.5025C79.9541 13.02 80.7862 13.2787 81.8211 13.2787C82.87 13.2787 83.6601 13.0619 84.1916 12.6284C84.723 12.1809 84.9887 11.6075 84.9887 10.9082C84.9887 10.4467 84.8628 10.0691 84.6111 9.77545C84.3594 9.48177 84.0028 9.25102 83.5413 9.0832C83.0798 8.9014 82.5274 8.73358 81.884 8.57974L81.1079 8.39095C80.1709 8.16719 79.3528 7.89448 78.6535 7.57283C77.9683 7.23719 77.4368 6.79667 77.0593 6.25126C76.6817 5.70585 76.4929 5.0066 76.4929 4.15352C76.4929 3.28645 76.7026 2.54525 77.1222 1.92992C77.5557 1.31458 78.1501 0.839095 78.9053 0.503457C79.6604 0.167819 80.5485 0 81.5694 0C82.5903 0 83.4993 0.174812 84.2964 0.524435C85.1076 0.874057 85.7439 1.3915 86.2054 2.07676C86.6669 2.76202 86.8976 3.62209 86.8976 4.65698V5.41216H84.6531V4.65698C84.6531 4.02766 84.5202 3.51721 84.2545 3.12563C84.0028 2.73405 83.6461 2.44736 83.1846 2.26556C82.7231 2.08375 82.1847 1.99285 81.5694 1.99285C80.6744 1.99285 79.9751 2.18165 79.4717 2.55924C78.9822 2.92285 78.7374 3.4333 78.7374 4.09059C78.7374 4.5381 78.8423 4.9087 79.0521 5.20239C79.2759 5.48209 79.5975 5.71284 80.0171 5.89464C80.4366 6.07644 80.961 6.23727 81.5904 6.37712L82.3665 6.56592C83.3175 6.77569 84.1566 7.0484 84.8838 7.38403C85.611 7.70569 86.1844 8.14621 86.604 8.70561C87.0235 9.265 87.2333 9.98523 87.2333 10.8663C87.2333 11.7473 87.0095 12.5165 86.562 13.1738C86.1285 13.8311 85.5061 14.3485 84.695 14.7261C83.8839 15.0897 82.9259 15.2715 81.8211 15.2715Z" fill="black"/>
<path d="M31.5588 1C32.1746 0.999961 32.7641 1.13278 33.3143 1.38178L57.9823 11.8226C60.8644 13.0421 63.026 15.8759 62.9998 19.1829C62.9343 32.2671 57.5893 55.9912 35.0173 66.7748C32.8296 67.8074 30.2881 67.8074 28.1003 66.7748C5.52181 55.9912 0.182095 32.2671 0 19.1829C0.100873 15.8759 2.25589 13.0421 5.13535 11.8226L29.8165 1.38178C30.3536 1.13278 30.9562 0.999961 31.5588 1Z" fill="black"/>
<path d="M24.7291 36.0306L31.4341 23.8096L38.1392 35.9974C36.257 35.1381 33.8788 34.7098 31.3357 34.7098C28.9574 34.7098 26.6457 35.1394 24.7303 36.0306M28.065 23.1818L15.0845 46.4014H19.0482L20.6669 43.3954C22.549 39.9278 25.7865 38.0444 31.3357 38.0444C36.8849 38.0444 40.3525 39.9265 42.2346 43.4287L43.8201 46.4014H47.9155L34.109 21.7626C33.4479 20.5734 32.5235 20.0786 31.0045 20.0786H19.8742L21.5734 21.815C22.6078 22.8494 23.421 23.1818 24.862 23.1818H28.065Z" fill="black"/>
<path d="M31.4341 23.1819H28.065L15.0845 46.4015H19.0482L20.6669 43.3955L24.7291 36.0307L31.4341 23.8097V23.1819Z" fill="url(#paint0_linear_2210_37)"/>
<path d="M31.3344 34.7087C28.9562 34.7087 26.6444 35.1384 24.7291 36.0295C22.7766 36.7456 19.6888 38.1546 18.1365 40.9407L15.0845 46.4004H19.0482L20.6669 43.3944C22.549 39.9268 25.7865 38.0434 31.3357 38.0434C36.5946 38.0434 39.8103 39.6378 41.7577 42.6208L38.1404 35.9963C36.2583 35.1371 33.8801 34.7087 31.3369 34.7087H31.3344Z" fill="white"/>
<path d="M31.0048 20.0774H19.8745L21.5738 21.8138C22.6082 22.8481 23.4214 23.1806 24.8624 23.1806H28.0653H31.0892L38.1395 35.9961L42.2349 43.4274L43.8204 46.4002H47.9158L34.1093 21.7613C33.4483 20.5722 32.5238 20.0774 31.0048 20.0774Z" fill="white"/>
<defs>
<linearGradient id="paint0_linear_2210_37" x1="16.4117" y1="47.1674" x2="30.5531" y2="22.673" gradientUnits="userSpaceOnUse">
<stop offset="0.3" stop-color="#F8F8EF" stop-opacity="0.6"/>
<stop offset="0.47" stop-color="#FAFAF3" stop-opacity="0.72"/>
<stop offset="0.87" stop-color="white"/>
</linearGradient>
</defs>
</svg>
